
<svg width="512" height="512" viewBox="0 0 512 512" fill="none" xmlns="http://www.w3.org/2000/svg">
  <rect width="512" height="512" rx="256" fill="#9b87f5"/>
  <path d="M352 256C352 309.019 309.019 352 256 352C202.981 352 160 309.019 160 256C160 202.981 202.981 160 256 160C309.019 160 352 202.981 352 256Z" fill="white" fill-opacity="0.4"/>
  <path d="M256 192C256 174.327 241.673 160 224 160C206.327 160 192 174.327 192 192C192 209.673 206.327 224 224 224C224 242.091 238.909 256 256 256C273.091 256 288 242.091 288 224C288 206.909 273.091 192 256 192Z" fill="white"/>
  <path d="M320 192C320 174.327 305.673 160 288 160C279.615 160 272.01 163.698 266.849 169.622C278.369 176.491 286 189.384 286 204C286 210.625 284.258 216.894 281.223 222.353C293.354 224.773 302.42 235.302 302.42 248C302.42 251.489 301.763 254.833 300.564 257.913C311.537 252.636 320 241.152 320 228C320 220.682 317.377 213.957 312.865 208.87C317.404 203.904 320 197.283 320 190C320 189.329 319.972 188.662 319.918 188C319.972 187.338 320 186.671 320 186C320 178.717 317.404 172.096 312.865 167.13C314.181 165.614 315.334 163.926 316.289 162.111C318.042 164.889 319.364 167.975 320.178 171.276C321.326 169.53 322.275 167.649 323 165.662C323.339 168.386 323.602 171.161 323.775 173.979C325.174 169.722 327.261 165.791 330 162.329C329.525 165.169 329.129 168.048 328.824 170.954C331.125 167.208 333.972 163.867 337.289 161C336.027 163.672 334.93 166.439 333.998 169.29C336.709 166.054 339.909 163.275 343.5 161.052C341.586 163.5 339.831 166.071 338.225 168.764C341.285 166.137 344.721 163.973 348.5 162.389C346.017 164.554 343.687 166.933 341.508 169.524C344.767 167.537 348.341 166.103 352.144 165.308C349.186 167.121 346.378 169.194 343.714 171.526C347.066 170.192 350.641 169.454 354.348 169.366C351.039 170.76 347.875 172.513 344.858 174.626C348.223 173.965 351.729 173.908 355.304 174.484C351.792 175.402 348.387 176.737 345.093 178.489C348.39 178.516 351.777 179.165 355.169 180.467C351.513 180.878 347.948 181.781 344.48 183.174C347.632 183.869 350.768 185.175 353.844 187.106C350.144 187.01 346.486 187.476 342.873 188.518C345.817 189.862 348.68 191.78 351.444 194.286C347.815 193.69 344.145 193.725 340.451 194.416C343.125 196.378 345.654 198.879 348.03 201.921C344.595 200.86 341.05 200.482 337.431 200.824C339.777 203.355 341.912 206.393 343.827 209.947C340.698 208.468 337.383 207.695 333.923 207.681C335.887 210.726 337.57 214.247 338.953 218.25C336.213 216.417 333.168 215.273 329.875 214.941C331.408 218.428 332.607 222.369 333.436 226.763C331.132 224.648 328.492 223.139 325.576 222.34C326.64 226.2 327.32 230.494 327.572 235.223C325.715 232.897 323.467 231.051 320.886 229.837C321.471 234 321.627 238.577 321.29 243.56C319.884 241.117 318.037 239.063 315.819 237.555C315.933 242.024 315.573 246.95 314.66 252.32C313.698 249.857 312.254 247.687 310.383 245.975C310.016 250.701 309.149 255.957 307.695 261.716C307.169 259.335 306.15 257.154 304.697 255.31C303.86 260.327 302.513 265.979 300.564 272.304C300.442 270.042 299.828 267.932 298.733 266.088C297.435 271.441 295.606 277.542 293.153 284.456C293.395 282.327 293.154 280.3 292.42 278.428C290.703 284.168 288.52 290.854 285.784 298.562C286.252 296.548 286.247 294.648 285.75 292.879C283.659 299.063 281.144 306.384 278.122 315.05C278.735 313.147 278.877 311.386 278.52 309.765C276.109 316.523 273.327 324.667 270.114 334.463C270.775 332.655 270.961 331.003 270.642 329.519C268.086 336.953 265.211 346.084 262.037 357.387C262.677 355.653 262.84 354.093 262.512 352.712C259.841 361.078 256.973 371.347 254 384L277.5 346L298.5 309.5L311.5 288L320 273L325.5 262L329 254.5L331 249.5L333 244.5L335 237.5L336.5 230.5L337.5 223L338 215L338 208.5V203.5V198.5V191.5V186.5V181.5V175.5V170.5V163L335 156L332 150.5L329 146.5L325.5 143L320.5 139.5L316 137L311.5 135L306.5 133.5L301 132.5L292 131.5H283.5L276.5 132L270 133L264 134.5L258.5 136.5L254 138.5L249.5 141L245.5 144L242 147L239 150.5L236.5 154L234.5 157.5L232.5 162L231 166.5L230 171L229.5 176V181.5" fill="white"/>
</svg>
